<svg height="512" viewBox="0 0 64 64" width="512" xmlns="http://www.w3.org/2000/svg" width="25px"><g id="Brush_teeth" data-name="Brush teeth"><path d="m55 36h-1v2h1a1 1 0 0 1 1 1v1h2v-1a3 3 0 0 0 -3-3z"/><path d="m47 40c-1.121 0-3-.26-3-2h-2c0 1.845 1.31 4 5 4s5-2.155 5-4h-2c0 1.74-1.879 2-3 2z"/><path d="m62 32a4 4 0 0 0 -4-4h-.08a5.62 5.62 0 0 0 .08-1 7.008 7.008 0 0 0 -7-7 6.659 6.659 0 0 0 -5.3 2.67 6.188 6.188 0 0 0 -1.15-.44l1.9-3.3 2-3.46 1-1.74a2.99 2.99 0 0 0 -1.09-4.09l-6.07-3.5.5-.87a.963.963 0 0 0 .1-.76 1 1 0 0 0 -.46-.61l-3.47-2a1 1 0 0 0 -1.36.37l-13.29 23.02-10.53 2.83a.949.949 0 0 0 -.61.46l-11.5 19.92a1 1 0 0 0 .37 1.37l3.46 2a1.094 1.094 0 0 0 .5.13 1.153 1.153 0 0 0 .26-.03 1.026 1.026 0 0 0 .61-.47l10.29-17.83 10.53-2.82a1.028 1.028 0 0 0 .6-.46l1-1.74 4.76 2.75a3.833 3.833 0 0 0 -.05.6 3.965 3.965 0 0 0 .41 1.73 6.984 6.984 0 0 0 -2.41 5.27v.88a24.955 24.955 0 0 0 1.43 8.34l4.18 11.82a2.912 2.912 0 0 0 5.61-.39l2.85-7.43a1 1 0 0 1 1.86 0l2.85 7.43a2.915 2.915 0 0 0 5.61.4l4.18-11.83a24.955 24.955 0 0 0 1.43-8.34v-.88a6.983 6.983 0 0 0 -1.3-4.05 4.024 4.024 0 0 0 1.3-2.95zm-16.78-14.94-6.93-4 1-1.73 6.93 4zm-10.93 2.93 1-1.73 6.65 3.84a5.894 5.894 0 0 0 -2.34.96zm3.83 4.53a6.071 6.071 0 0 0 -.87 1.79l-4.95-2.86.99-1.72zm-1.83-7.99 1-1.73 6.93 4-1 1.73zm11.07-5.16a1 1 0 0 1 .36 1.36l-.5.87-6.93-4 1-1.73zm-20.59 17.66-10.53 2.82a1.01 1.01 0 0 0 -.61.46l-10 17.32-1.73-1 10.79-18.69 10.53-2.82a1 1 0 0 0 .61-.47l13-22.51 1.73 1zm3.52-2.11 1.01-1.73 5.32 3.07a3.887 3.887 0 0 0 -1.77 1.29zm29.71 12.96a22.785 22.785 0 0 1 -1.32 7.67l-4.18 11.84a.918.918 0 0 1 -.86.61.9.9 0 0 1 -.9-.77 1.6 1.6 0 0 0 -.05-.21l-2.89-7.52a3 3 0 0 0 -5.6 0l-2.89 7.52a1.6 1.6 0 0 0 -.05.21.909.909 0 0 1 -1.76.15l-4.18-11.83a22.785 22.785 0 0 1 -1.32-7.67v-.88a5 5 0 0 1 5-5h4c1.06 0 2.47 2.03 3.09 3.41a1 1 0 0 0 1.82 0c.62-1.38 2.03-3.41 3.09-3.41h4a5 5 0 0 1 5 5zm-.68-6.38a6.944 6.944 0 0 0 -4.32-1.5h-4c-1.74 0-3.14 1.61-4 2.94-.86-1.33-2.26-2.94-4-2.94h-4a6.976 6.976 0 0 0 -2.89.63 1.9 1.9 0 0 1 -.11-.63 2.006 2.006 0 0 1 2-2 1 1 0 0 0 1-1v-1a4 4 0 0 1 4-4 4.4 4.4 0 0 1 2.42.82 1 1 0 0 0 .79.16 1.055 1.055 0 0 0 .65-.46 4.831 4.831 0 0 1 4.14-2.52 5 5 0 0 1 5 5 5.2 5.2 0 0 1 -.29 1.67 1.014 1.014 0 0 0 .12.91 1.028 1.028 0 0 0 .82.42h1.35a2 2 0 0 1 1.32 3.5z"/><path d="m58 19a3 3 0 1 0 -3-3 3 3 0 0 0 3 3zm0-4a1 1 0 1 1 -1 1 1 1 0 0 1 1-1z"/><path d="m26 34a3 3 0 1 0 3 3 3 3 0 0 0 -3-3zm0 4a1 1 0 1 1 1-1 1 1 0 0 1 -1 1z"/><path d="m20 45a3 3 0 1 0 3 3 3 3 0 0 0 -3-3zm0 4a1 1 0 1 1 1-1 1 1 0 0 1 -1 1z"/><path d="m32 56a3 3 0 1 0 3 3 3 3 0 0 0 -3-3zm0 4a1 1 0 1 1 1-1 1 1 0 0 1 -1 1z"/><path d="m51 25h2v2h-2z"/><path d="m51 8h2v2h-2z"/><path d="m26 45h2v2h-2z"/><path d="m17 38h2v2h-2z"/><path d="m19 58h2v2h-2z"/></g></svg>