<?xml version="1.0" encoding="iso-8859-1"?>
<!-- Generator: Adobe Illustrator 19.0.0, SVG Export Plug-In . SVG Version: 6.00 Build 0)  -->
<svg version="1.1" id="Capa_1" xmlns="http://www.w3.org/2000/svg" xmlns:xlink="http://www.w3.org/1999/xlink" x="0px" y="0px"
	 viewBox="0 0 499.52 499.52" style="enable-background:new 0 0 499.52 499.52;" xml:space="preserve">
<g>
	<g>
		<path d="M469.464,259.488c-2.976-14.904-16.184-25.728-31.384-25.728h-12.832c15.856-24.728,24.512-53.72,24.512-83.224v-7.872
			c0-29.176-23.728-52.904-52.896-52.904h-3.52c-10.464,0-20.84,3.232-30.016,9.344c-6.536,4.352-12.608,6.656-17.568,6.656
			c-4.96,0-11.032-2.304-17.56-6.656c-9.176-6.112-19.56-9.344-30.016-9.344h-3.52c-18.952,0-35.552,10.048-44.896,25.064
			c-9.352-15.016-25.952-25.064-44.904-25.064h-3.52c-10.464,0-20.84,3.232-30.016,9.344c-6.536,4.352-12.608,6.656-17.568,6.656
			s-11.032-2.304-17.56-6.656c-9.176-6.112-19.56-9.344-30.016-9.344h-3.52c-29.176,0-52.904,23.728-52.904,52.896v7.872
			c0,29.512,8.656,58.504,24.512,83.232H61.44c-15.2,0-28.408,10.824-31.384,25.72L0,409.76h499.52L469.464,259.488z
			 M403.512,236.768l-21.792,56.984c-0.896,2.392-3.216,4.008-5.784,4.008c-3.4,0-6.176-2.768-6.176-6.176V225.76
			c0-13.232-10.768-24-24-24s-24,10.768-24,24v65.824c0,3.408-2.776,6.176-6.176,6.176c-2.56,0-4.88-1.616-5.784-4.008l-20.544-54.8
			l-1.24-2.184c-15.472-19.344-25.32-42.632-28.776-67h46.52v16h8h8h48h8h8v-16h46.528
			C428.832,194.144,418.984,217.432,403.512,236.768z M321.76,169.76v-16h48v16H321.76z M257.76,142.664
			c0-20.352,16.552-36.904,36.896-36.904h3.52c7.296,0,14.608,2.304,21.144,6.656c18.592,12.4,34.28,12.4,52.872,0
			c6.536-4.352,13.848-6.656,21.144-6.656h3.52c20.352,0,36.904,16.552,36.904,36.896v7.872c0,1.08-0.112,2.152-0.136,3.224H385.76
			v-16h-8h-8h-48h-8h-8v16h-47.864c-0.024-1.072-0.136-2.136-0.136-3.216V142.664z M249.76,199.216
			c4.048,12.128,9.584,23.736,16.512,34.544h-33.024C240.176,222.96,245.712,211.344,249.76,199.216z M65.76,150.536v-7.88
			c0-20.344,16.552-36.896,36.896-36.896h3.52c7.296,0,14.608,2.304,21.144,6.656c18.592,12.4,34.28,12.4,52.872,0
			c6.536-4.352,13.848-6.656,21.144-6.656h3.52c20.352,0,36.904,16.552,36.904,36.896v7.872c0,1.08-0.112,2.152-0.136,3.224H193.76
			v-16h-8h-8h-48h-8h-8v16H65.896C65.872,152.68,65.76,151.616,65.76,150.536z M177.76,153.76v16h-48v-16H177.76z M67.232,169.76
			h46.528v16h8h8h48h8h8v-16h46.528c-3.456,24.376-13.304,47.664-28.776,67l-21.792,56.984c-0.896,2.4-3.216,4.016-5.784,4.016
			c-3.4,0-6.176-2.768-6.176-6.176V225.76c0-13.232-10.768-24-24-24s-24,10.768-24,24v65.824c0,3.408-2.776,6.176-6.176,6.176
			c-2.56,0-4.88-1.616-5.784-4.008l-20.544-54.8l-1.24-2.184C80.536,217.424,70.688,194.136,67.232,169.76z M45.744,262.616
			c1.496-7.448,8.096-12.856,15.696-12.856h22.776l18.6,49.616c3.232,8.6,11.576,14.384,20.768,14.384
			c12.224,0,22.176-9.952,22.176-22.176V225.76c0-4.408,3.584-8,8-8s8,3.592,8,8v65.824c0,12.224,9.952,22.176,22.176,22.176
			c9.184,0,17.528-5.784,20.768-14.392l18.6-49.608h52.92l18.6,49.616c3.224,8.6,11.568,14.384,20.76,14.384
			c12.224,0,22.176-9.952,22.176-22.176V225.76c0-4.408,3.584-8,8-8c4.416,0,8,3.592,8,8v65.824
			c0,12.224,9.952,22.176,22.176,22.176c9.184,0,17.528-5.784,20.768-14.392l18.6-49.608h22.776c7.6,0,14.2,5.408,15.696,12.864
			L480,393.76H19.52L45.744,262.616z"/>
	</g>
</g>
<g>
</g>
<g>
</g>
<g>
</g>
<g>
</g>
<g>
</g>
<g>
</g>
<g>
</g>
<g>
</g>
<g>
</g>
<g>
</g>
<g>
</g>
<g>
</g>
<g>
</g>
<g>
</g>
<g>
</g>
</svg>
