<svg id="Capa_1" enable-background="new 0 0 497.611 497.611" height="50" viewBox="0 0 497.611 497.611" width="50" xmlns="http://www.w3.org/2000/svg"><g><path d="m264.12 65.173c-21.532-.862-42.447 4.787-60.467 16.349-13.156 8.44-30.153 8.44-43.306.001-18.025-11.565-38.931-17.219-60.485-16.349-16.252.656-32.344 5.226-46.535 13.215-3.61 2.032-4.889 6.605-2.857 10.215 2.031 3.609 6.607 4.889 10.214 2.857 12.307-6.928 25.691-10.729 39.783-11.298 18.464-.74 36.357 4.092 51.78 13.986 18.07 11.595 41.429 11.596 59.505-.001 15.416-9.891 33.308-14.736 51.764-13.985 46.805 1.882 84.341 40.062 85.455 86.918.349 14.643-2.914 29.233-9.434 42.191-27.603 54.857-43.877 111.719-48.369 169.009l-2.3 29.32c-1.466 18.695-17.304 33.339-36.058 33.339-11.991 0-23.176-5.922-29.921-15.842-3.066-4.511-5.065-10.038-5.779-15.984-.004-.036-.009-.072-.014-.107l-12.15-90.188c-.288-2.362-.809-4.431-1.589-6.324-3.528-8.551-11.912-14.076-21.36-14.076-9.447 0-17.831 5.525-21.358 14.076-.782 1.896-1.303 3.967-1.59 6.329l-12.149 90.182c-.005.036-.01.072-.014.107-.714 5.944-2.713 11.472-5.78 15.984-6.744 9.92-17.93 15.842-29.921 15.842-18.753 0-34.591-14.645-36.058-33.34l-2.303-29.36c-4.49-57.273-20.762-114.12-48.361-168.962-6.521-12.956-9.785-27.543-9.439-42.183.508-21.499 8.87-42.132 23.547-58.098 2.804-3.049 2.604-7.794-.445-10.597-3.051-2.804-7.795-2.605-10.598.446-17.14 18.646-26.906 42.757-27.5 67.895-.404 17.092 3.412 34.133 11.036 49.281 26.72 53.095 42.468 108.068 46.807 163.392l2.303 29.36c2.074 26.449 24.48 47.167 51.011 47.167 16.964 0 32.786-8.377 42.325-22.408 4.401-6.473 7.257-14.277 8.262-22.572l12.15-90.188c.005-.037.01-.074.015-.11.121-1.013.307-1.813.568-2.446 1.836-4.451 6.199-4.797 7.492-4.797 1.294 0 5.657.346 7.494 4.797.261.633.447 1.434.569 2.45.004.035.009.07.014.105l12.15 90.188c1.005 8.296 3.86 16.1 8.261 22.572 9.54 14.031 25.363 22.408 42.326 22.408 26.53 0 48.936-20.718 51.01-47.167l2.3-29.32c4.341-55.341 20.091-110.33 46.815-163.439 7.622-15.15 11.436-32.194 11.03-49.29-1.3-54.744-45.159-99.35-99.846-101.55z"/><path d="m497.611 102.789c0-34.368-27.96-62.329-62.328-62.329s-62.329 27.961-62.329 62.329c0 32.543 25.075 59.325 56.917 62.079v40.431h-10.259c-7.622 0-13.822 6.201-13.822 13.822v94.327c0 4.142 3.357 7.5 7.5 7.5s7.5-3.358 7.5-7.5v-93.15h32.172v205.766c0 8.87-7.216 16.086-16.086 16.086s-16.086-7.216-16.086-16.086v-82.617c0-4.142-3.357-7.5-7.5-7.5s-7.5 3.358-7.5 7.5v82.617c0 17.141 13.945 31.086 31.086 31.086s31.086-13.945 31.086-31.086v-206.943c0-7.622-6.2-13.822-13.822-13.822h-9.269v-40.92c29.832-4.626 52.74-30.482 52.74-61.59zm-109.657 0c0-26.097 21.232-47.329 47.329-47.329s47.328 21.232 47.328 47.329-21.231 47.329-47.328 47.329c-26.098 0-47.329-21.232-47.329-47.329z"/><path d="m467.962 102.789c0-18.02-14.659-32.679-32.679-32.679s-32.68 14.66-32.68 32.679c0 18.02 14.66 32.679 32.68 32.679s32.679-14.659 32.679-32.679zm-50.359 0c0-9.749 7.931-17.679 17.68-17.679 9.748 0 17.679 7.931 17.679 17.679 0 9.749-7.931 17.679-17.679 17.679-9.749 0-17.68-7.93-17.68-17.679z"/></g></svg>